<svg xmlns="http://www.w3.org/2000/svg" width="777.309" height="888.22" viewBox="0 0 777.309 888.22">
  <g id="cosmos_img" transform="translate(-213.18 816.974)">
    <path id="패스_23" data-name="패스 23" d="M370.541-816.474c3.662,0,8.125,1.62,13.466,6.536,5.4,4.97,11.094,12.782,16.833,23.7,11.465,21.812,22.1,54.043,31.145,94.725,18.055,81.2,29.312,193.859,29.312,318.648S450.04-135.415,431.985-54.214C422.941-13.533,412.3,18.7,400.84,40.511c-5.739,10.917-11.433,18.73-16.833,23.695-5.341,4.916-9.8,6.54-13.466,6.54s-8.124-1.625-13.466-6.54c-5.4-4.965-11.089-12.777-16.828-23.695-11.469-21.812-22.1-54.043-31.15-94.725-18.055-81.2-29.307-193.863-29.307-318.652S291.042-610.318,309.1-691.514c9.048-40.682,19.68-72.913,31.15-94.725,5.739-10.917,11.433-18.73,16.828-23.7C362.417-814.854,366.879-816.474,370.541-816.474Z" transform="translate(233.121)" fill="none" stroke="#fff" stroke-width="1"/>
    <path id="패스_24" data-name="패스 24" d="M985.241-758.725c1.829,3.164,2.652,7.835,1.064,14.914-1.6,7.152-5.527,15.987-12.117,26.411-13.171,20.834-35.784,46.154-66.513,74.325C846.34-586.85,754.335-520.781,646.2-458.387S434.8-349.4,355.41-324.428c-39.777,12.51-73.026,19.422-97.663,20.4-12.334.493-21.952-.529-28.954-2.72-6.934-2.163-10.569-5.214-12.4-8.378s-2.657-7.835-1.068-14.919c1.607-7.152,5.531-15.986,12.121-26.411,13.167-20.83,35.78-46.15,66.513-74.321C355.3-487,447.3-553.071,555.438-615.465s211.4-108.983,290.788-133.959c39.776-12.51,73.026-19.422,97.663-20.4,12.33-.489,21.948.53,28.954,2.72C979.778-764.94,983.412-761.889,985.241-758.725Z" transform="translate(2.84 164.06)" fill="none" stroke="#fff" stroke-width="1"/>
    <path id="패스_25" data-name="패스 25" d="M215.614-759.176c1.838-3.159,5.481-6.2,12.411-8.333,7.007-2.164,16.62-3.15,28.945-2.612,24.623,1.073,57.832,8.115,97.55,20.784,79.272,25.284,182.331,72.284,290.213,135.117S844.363-484.935,905.49-428.452c30.625,28.3,53.143,53.717,66.242,74.606,6.554,10.46,10.447,19.313,12.026,26.479,1.566,7.093.724,11.763-1.109,14.923s-5.481,6.2-12.416,8.337c-7.007,2.159-16.62,3.146-28.941,2.607-24.623-1.073-57.832-8.116-97.549-20.78C764.471-347.564,661.413-394.569,553.53-457.4S353.9-586.681,292.773-643.164c-30.625-28.3-53.147-53.717-66.242-74.611-6.554-10.456-10.446-19.309-12.031-26.478C212.935-751.346,213.777-756.017,215.614-759.176Z" transform="translate(0 162.944)" fill="none" stroke="#fff" stroke-width="1"/>
    <path id="패스_26" data-name="패스 26" d="M260.621-746.54a31.916,31.916,0,0,1,31.91,31.923,31.916,31.916,0,0,1-31.91,31.923,31.915,31.915,0,0,1-31.906-31.923A31.915,31.915,0,0,1,260.621-746.54Z" transform="translate(53.019 246.604)" fill="none" stroke="#fff" stroke-miterlimit="10" stroke-width="1" fill-rule="evenodd"/>
    <path id="패스_27" data-name="패스 27" d="M372.674-770.693A31.926,31.926,0,0,1,404.6-738.765a31.925,31.925,0,0,1-31.924,31.923,31.925,31.925,0,0,1-31.923-31.923A31.926,31.926,0,0,1,372.674-770.693Z" transform="translate(448.084 161.435)" fill="none" stroke="#fff" stroke-miterlimit="10" stroke-width="1" fill-rule="evenodd"/>
    <path id="패스_28" data-name="패스 28" d="M310.5-659.991a31.914,31.914,0,0,1,31.924,31.91A31.913,31.913,0,0,1,310.5-596.175a31.916,31.916,0,0,1-31.924-31.905A31.917,31.917,0,0,1,310.5-659.991Z" transform="translate(228.858 551.797)" fill="none" stroke="#fff" stroke-miterlimit="10" stroke-width="1" fill-rule="evenodd"/>
    <path id="패스_29" data-name="패스 29" d="M341.554-730.459A54.047,54.047,0,0,1,395.6-676.411a54.047,54.047,0,0,1-54.048,54.047,54.049,54.049,0,0,1-54.048-54.047A54.05,54.05,0,0,1,341.554-730.459Z" transform="translate(260.33 303.31)" fill="none" stroke="#fff" stroke-miterlimit="10" stroke-width="1" fill-rule="evenodd"/>
  </g>
</svg>
