<svg xmlns="http://www.w3.org/2000/svg" width="115.607" height="1003" viewBox="0 0 115.607 1003">
  <g id="그룹_1" data-name="그룹 1" transform="translate(-384.411 444.257)">
    <g id="패스_1" data-name="패스 1" transform="translate(0.981 684.796)" fill="none" stroke-miterlimit="10">
      <path d="M447.533-162.865l20.99,20.668h29.225v16.144H384.725V-142.2h63.13l-63.13-61.356v-18.408l50.857,48.276,62.165-51.344v18.891Z" stroke="none"/>
      <path d="M 496.7470092773438 -127.0532760620117 L 496.7470092773438 -141.197509765625 L 468.5223999023438 -141.197509765625 L 468.1127014160156 -141.197509765625 L 467.8207702636719 -141.4849548339844 L 446.8311767578125 -162.1529083251953 L 446.0578002929688 -162.9144287109375 L 446.8799743652344 -163.6229705810547 L 496.7470092773438 -206.5977478027344 L 496.7470092773438 -222.9070281982422 L 436.2192993164063 -172.9149322509766 L 435.5364074707031 -172.3508911132813 L 434.8940124511719 -172.9606781005859 L 385.7250061035156 -219.6339569091797 L 385.7250061035156 -203.9764099121094 L 448.5514831542969 -142.9146118164063 L 450.3182373046875 -141.197509765625 L 447.8545227050781 -141.197509765625 L 385.7250061035156 -141.197509765625 L 385.7250061035156 -127.0532760620117 L 496.7470092773438 -127.0532760620117 M 497.7470092773438 -126.0532760620117 L 384.7250061035156 -126.0532760620117 L 384.7250061035156 -142.197509765625 L 447.8545227050781 -142.197509765625 L 384.7250061035156 -203.5538330078125 L 384.7250061035156 -221.9619903564453 L 435.5824890136719 -173.6859436035156 L 497.7470092773438 -225.0299530029297 L 497.7470092773438 -206.1394195556641 L 447.5328063964844 -162.8654632568359 L 468.5223999023438 -142.197509765625 L 497.7470092773438 -142.197509765625 L 497.7470092773438 -126.0532760620117 Z" stroke="none" fill="#fff"/>
    </g>
    <g id="패스_2" data-name="패스 2" transform="translate(0.981 609.7)" fill="none" stroke-miterlimit="10">
      <path d="M483.7-249.071h14.049v82.024H384.725v-79.76H398.77V-183.2h34.713v-56.672h13.724V-183.2H483.7Z" stroke="none"/>
      <path d="M 484.6975708007813 -248.0709991455078 L 484.6975708007813 -183.1950836181641 L 484.6975708007813 -182.1950836181641 L 483.6975708007813 -182.1950836181641 L 447.2071228027344 -182.1950836181641 L 446.2071228027344 -182.1950836181641 L 446.2071228027344 -183.1950836181641 L 446.2071228027344 -238.8669891357422 L 434.4834899902344 -238.8669891357422 L 434.4834899902344 -183.1950836181641 L 434.4834899902344 -182.1950836181641 L 433.4834899902344 -182.1950836181641 L 398.7702331542969 -182.1950836181641 L 397.7702331542969 -182.1950836181641 L 397.7702331542969 -183.1950836181641 L 397.7702331542969 -245.80712890625 L 385.7250061035156 -245.80712890625 L 385.7250061035156 -168.0467224121094 L 496.7470092773438 -168.0467224121094 L 496.7470092773438 -248.0709991455078 L 484.6975708007813 -248.0709991455078 M 483.6975708007813 -249.0709991455078 L 497.7470092773438 -249.0709991455078 L 497.7470092773438 -167.0467224121094 L 384.7250061035156 -167.0467224121094 L 384.7250061035156 -246.80712890625 L 398.7702331542969 -246.80712890625 L 398.7702331542969 -183.1950836181641 L 433.4834899902344 -183.1950836181641 L 433.4834899902344 -239.8669891357422 L 447.2071228027344 -239.8669891357422 L 447.2071228027344 -183.1950836181641 L 483.6975708007813 -183.1950836181641 L 483.6975708007813 -249.0709991455078 Z" stroke="none" fill="#fff"/>
    </g>
    <g id="패스_3" data-name="패스 3" transform="translate(0.981 524.086)" fill="none" stroke-miterlimit="10">
      <path d="M458.671-231.6h39.076v15.988h-39.4l-73.624,44.886V-188L444.3-224.166l-59.579-36.326v-15.988Z" stroke="none"/>
      <path d="M 385.7250061035156 -274.7022094726563 L 385.7250061035156 -261.0529174804688 L 444.8244934082031 -225.0196990966797 L 446.2279052734375 -224.1640319824219 L 444.8228454589844 -223.3110656738281 L 385.7250061035156 -187.4342346191406 L 385.7250061035156 -172.5037536621094 L 457.8288269042969 -216.4629974365234 L 458.0685729980469 -216.6091766357422 L 458.349365234375 -216.6091766357422 L 496.7470092773438 -216.6091766357422 L 496.7470092773438 -230.5968170166016 L 458.6710205078125 -230.5968170166016 L 458.3912963867188 -230.5968170166016 L 458.1521606445313 -230.7419738769531 L 385.7250061035156 -274.7022094726563 M 384.7250061035156 -276.4789428710938 L 458.6710205078125 -231.5968170166016 L 497.7470092773438 -231.5968170166016 L 497.7470092773438 -215.6091766357422 L 458.349365234375 -215.6091766357422 L 384.7250061035156 -170.722900390625 L 384.7250061035156 -187.9970092773438 L 444.3039245605469 -224.1658935546875 L 384.7250061035156 -260.4914245605469 L 384.7250061035156 -276.4789428710938 Z" stroke="none" fill="#fff"/>
    </g>
    <g id="패스_4" data-name="패스 4" transform="translate(0 455.471)" fill="none" stroke-miterlimit="10">
      <path d="M485.808-211.419l-12.594-5.975c7.588-8.392,13.08-22.763,13.08-37.295,0-19.538-7.588-27.93-17.439-27.93-27.608,0-10.169,68.453-52.152,68.453-17.439,0-32.293-13.563-32.293-43.27,0-13.237,3.554-26.961,10.012-36.326l12.915,5.328a58.385,58.385,0,0,0-9.2,31c0,19.212,8.074,27.447,17.922,27.447,27.608,0,10.334-68.457,51.827-68.457,17.278,0,32.132,13.884,32.132,43.756C500.018-237.41,494.2-220.458,485.808-211.419Z" stroke="none"/>
      <path d="M 485.5664672851563 -212.6402893066406 C 489.4229125976563 -216.9897766113281 492.7155456542969 -223.0696258544922 495.1129150390625 -230.2794647216797 C 497.66796875 -237.9635925292969 499.0184631347656 -246.4041290283203 499.0184631347656 -254.6885833740234 C 499.0184631347656 -261.7994689941406 498.1611633300781 -268.242431640625 496.4703674316406 -273.8385314941406 C 494.8967895507813 -279.0466918945313 492.6043701171875 -283.5209350585938 489.6567993164063 -287.1369323730469 C 486.8839721679688 -290.5386047363281 483.559814453125 -293.15087890625 479.7766418457031 -294.9012145996094 C 476.1283569335938 -296.589111328125 472.1280212402344 -297.4449768066406 467.88671875 -297.4449768066406 C 465.196533203125 -297.4449768066406 462.6674499511719 -297.1432495117188 460.3696594238281 -296.5482177734375 C 458.2029418945313 -295.9871520996094 456.17138671875 -295.1465759277344 454.3313903808594 -294.0499267578125 C 450.9448547363281 -292.0315246582031 448.1092529296875 -289.1374816894531 445.66259765625 -285.2023620605469 C 441.0697631835938 -277.8154907226563 438.7281494140625 -268.1423034667969 436.4636535644531 -258.7875671386719 C 434.5974731445313 -251.078369140625 432.8347778320313 -243.7967224121094 429.9285583496094 -238.328857421875 C 426.587646484375 -232.0431518554688 422.05126953125 -228.9876251220703 416.0602111816406 -228.9876251220703 C 410.5564575195313 -228.9876251220703 405.9014587402344 -231.3840484619141 402.5984802246094 -235.9178161621094 C 398.9756469726563 -240.8906097412109 397.1387023925781 -248.1299896240234 397.1387023925781 -257.4348754882813 C 397.1387023925781 -267.9422302246094 400.2298889160156 -278.733642578125 405.8638000488281 -287.9592895507813 L 394.7959289550781 -292.52490234375 C 388.9085998535156 -283.6030883789063 385.4110107421875 -270.5630798339844 385.4110107421875 -257.4348754882813 C 385.4110107421875 -250.3634338378906 386.2688293457031 -243.970458984375 387.960693359375 -238.4335021972656 C 389.5354309082031 -233.2797698974609 391.8322143554688 -228.8604431152344 394.7872314453125 -225.2982940673828 C 397.5663452148438 -221.9481658935547 400.9055786132813 -219.3782196044922 404.7121276855469 -217.6598358154297 C 408.3792114257813 -216.0044250488281 412.4137268066406 -215.1650543212891 416.7035522460938 -215.1650543212891 C 419.4345397949219 -215.1650543212891 422.0016784667969 -215.4685363769531 424.3337097167969 -216.0670776367188 C 426.5324401855469 -216.6314086914063 428.5935363769531 -217.4767150878906 430.459716796875 -218.5795440673828 C 433.8927307128906 -220.6082611083984 436.7648315429688 -223.5160827636719 439.2401123046875 -227.4692230224609 C 443.8847961425781 -234.8869171142578 446.2380065917969 -244.5872955322266 448.5137634277344 -253.96826171875 C 450.3755798339844 -261.64306640625 452.1341857910156 -268.8922729492188 455.0310974121094 -274.3303527832031 C 458.3604736328125 -280.5801696777344 462.8825378417969 -283.6182556152344 468.8557434082031 -283.6182556152344 C 474.3284301757813 -283.6182556152344 478.9058227539063 -281.1732482910156 482.0931091308594 -276.5475463867188 C 485.5447692871094 -271.5381469726563 487.2948913574219 -264.1837463378906 487.2948913574219 -254.6885833740234 C 487.2948913574219 -241.1035461425781 482.43603515625 -226.7757263183594 474.8352966308594 -217.7318572998047 L 485.5664672851563 -212.6402893066406 M 485.8082580566406 -211.418701171875 L 473.214599609375 -217.3939514160156 C 480.8021850585938 -225.7856750488281 486.2948913574219 -240.1566314697266 486.2948913574219 -254.6885833740234 C 486.2948913574219 -274.2265319824219 478.7073059082031 -282.6182556152344 468.8557434082031 -282.6182556152344 C 441.2476501464844 -282.6182556152344 458.6867980957031 -214.1650543212891 416.7035522460938 -214.1650543212891 C 399.2643737792969 -214.1650543212891 384.4110107421875 -227.7277984619141 384.4110107421875 -257.4348754882813 C 384.4110107421875 -270.6719055175781 387.9654846191406 -284.3955688476563 394.4231262207031 -293.7604064941406 L 407.3385925292969 -288.4326782226563 C 401.0459594726563 -278.5852966308594 398.1387023925781 -267.4472351074219 398.1387023925781 -257.4348754882813 C 398.1387023925781 -238.22265625 406.2129211425781 -229.9876251220703 416.0602111816406 -229.9876251220703 C 443.6682739257813 -229.9876251220703 426.3941650390625 -298.4449768066406 467.88671875 -298.4449768066406 C 485.1649169921875 -298.4449768066406 500.0184631347656 -284.560546875 500.0184631347656 -254.6885833740234 C 500.0184631347656 -237.4103088378906 494.2041320800781 -220.4578094482422 485.8082580566406 -211.418701171875 Z" stroke="none" fill="#fff"/>
    </g>
    <g id="패스_5" data-name="패스 5" transform="translate(0.981 380.378)" fill="none" stroke-miterlimit="10">
      <path d="M398.77-267.756V-229H384.725v-93.484H398.77v38.746h98.977v15.983Z" stroke="none"/>
      <path d="M 397.7702331542969 -230.0010833740234 L 397.7702331542969 -267.7555541992188 L 397.7702331542969 -268.7555541992188 L 398.7702331542969 -268.7555541992188 L 496.7470092773438 -268.7555541992188 L 496.7470092773438 -282.7388610839844 L 398.7702331542969 -282.7388610839844 L 397.7702331542969 -282.7388610839844 L 397.7702331542969 -283.7388610839844 L 397.7702331542969 -321.4850463867188 L 385.7250061035156 -321.4850463867188 L 385.7250061035156 -230.0010833740234 L 397.7702331542969 -230.0010833740234 M 398.7702331542969 -229.0010833740234 L 384.7250061035156 -229.0010833740234 L 384.7250061035156 -322.4850463867188 L 398.7702331542969 -322.4850463867188 L 398.7702331542969 -283.7388610839844 L 497.7470092773438 -283.7388610839844 L 497.7470092773438 -267.7555541992188 L 398.7702331542969 -267.7555541992188 L 398.7702331542969 -229.0010833740234 Z" stroke="none" fill="#fff"/>
    </g>
    <g id="패스_6" data-name="패스 6" transform="translate(0.981 294.52)" fill="none" stroke-miterlimit="10">
      <path d="M469.492-320.59v60.061l28.255,12.437v16.627L384.725-282.644v-15.988l113.022-51.34v16.948Zm-12.92,5.654-55.377,24.379,55.377,24.379Z" stroke="none"/>
      <path d="M 496.7470092773438 -348.4183349609375 L 385.7250061035156 -297.9869689941406 L 385.7250061035156 -283.2884521484375 L 496.7470092773438 -233.01513671875 L 496.7470092773438 -247.4387817382813 L 469.0886840820313 -259.6130676269531 L 468.4915466308594 -259.8759155273438 L 468.4915466308594 -260.5283203125 L 468.4915466308594 -320.5897827148438 L 468.4915466308594 -321.2422790527344 L 469.0888061523438 -321.5050964355469 L 496.7470092773438 -333.675048828125 L 496.7470092773438 -348.4183349609375 M 457.572021484375 -264.6448059082031 L 456.1690979003906 -265.2624206542969 L 400.7920532226563 -289.6416015625 L 398.7131042480469 -290.5568542480469 L 400.7920532226563 -291.4720764160156 L 456.1690979003906 -315.8514404296875 L 457.572021484375 -316.4690551757813 L 457.572021484375 -314.9362182617188 L 457.572021484375 -266.1776733398438 L 457.572021484375 -264.6448059082031 M 497.7470092773438 -349.970947265625 L 497.7470092773438 -333.0225219726563 L 469.4915466308594 -320.5897827148438 L 469.4915466308594 -260.5283203125 L 497.7470092773438 -248.0911865234375 L 497.7470092773438 -231.4645385742188 L 384.7250061035156 -282.6435241699219 L 384.7250061035156 -298.6310729980469 L 497.7470092773438 -349.970947265625 Z M 456.572021484375 -266.1776733398438 L 456.572021484375 -314.9362182617188 L 401.1949768066406 -290.5568542480469 L 456.572021484375 -266.1776733398438 Z" stroke="none" fill="#fff"/>
    </g>
    <g id="패스_7" data-name="패스 7" transform="translate(0.981 227.614)" fill="none" stroke-miterlimit="10">
      <path d="M398.77-316.656v38.746H384.725v-93.48H398.77v38.75h98.977v15.983Z" stroke="none"/>
      <path d="M 397.7702331542969 -278.9101257324219 L 397.7702331542969 -316.6563720703125 L 397.7702331542969 -317.6563720703125 L 398.7702331542969 -317.6563720703125 L 496.7470092773438 -317.6563720703125 L 496.7470092773438 -331.6396789550781 L 398.7702331542969 -331.6396789550781 L 397.7702331542969 -331.6396789550781 L 397.7702331542969 -332.6396789550781 L 397.7702331542969 -370.3900146484375 L 385.7250061035156 -370.3900146484375 L 385.7250061035156 -278.9101257324219 L 397.7702331542969 -278.9101257324219 M 398.7702331542969 -277.9101257324219 L 384.7250061035156 -277.9101257324219 L 384.7250061035156 -371.3900146484375 L 398.7702331542969 -371.3900146484375 L 398.7702331542969 -332.6396789550781 L 497.7470092773438 -332.6396789550781 L 497.7470092773438 -316.6563720703125 L 398.7702331542969 -316.6563720703125 L 398.7702331542969 -277.9101257324219 Z" stroke="none" fill="#fff"/>
    </g>
    <g id="패스_8" data-name="패스 8" transform="translate(0.981 202.052)" fill="none" stroke-miterlimit="10">
      <path d="M384.725-363.429v-16.144H497.747v16.144Z" stroke="none"/>
      <path d="M 496.7470092773438 -364.4287414550781 L 496.7470092773438 -378.5729370117188 L 385.7250061035156 -378.5729370117188 L 385.7250061035156 -364.4287414550781 L 496.7470092773438 -364.4287414550781 M 497.7470092773438 -363.4287414550781 L 384.7250061035156 -363.4287414550781 L 384.7250061035156 -379.5729370117188 L 497.7470092773438 -379.5729370117188 L 497.7470092773438 -363.4287414550781 Z" stroke="none" fill="#fff"/>
    </g>
    <g id="패스_9" data-name="패스 9" transform="translate(0 92.345)" fill="none" stroke-miterlimit="10">
      <path d="M442.213-294.571c-33.1,0-57.8-25.513-57.8-60.226,0-34.391,24.544-59.9,57.8-59.9s57.806,25.505,57.806,59.9C500.018-320.084,475.313-294.571,442.213-294.571Zm0-103.979c-25.023,0-43.431,18.73-43.431,43.752,0,25.352,18.408,44.082,43.431,44.082s43.435-18.73,43.435-44.082C485.647-379.82,467.239-398.55,442.213-398.55Z" stroke="none"/>
      <path d="M 442.212646484375 -295.5710144042969 C 450.1988525390625 -295.5710144042969 457.8054809570313 -297.0683898925781 464.8212280273438 -300.0215148925781 C 471.6389465332031 -302.8912963867188 477.6904907226563 -307.0426330566406 482.8078002929688 -312.3601989746094 C 487.9353332519531 -317.6883544921875 491.9395446777344 -323.9951477050781 494.7092895507813 -331.1054077148438 C 497.5686340332031 -338.4457397460938 499.0184631347656 -346.4169006347656 499.0184631347656 -354.7974853515625 C 499.0184631347656 -363.106201171875 497.5763549804688 -371.0141296386719 494.7321472167969 -378.3016052246094 C 491.97216796875 -385.3733215332031 487.9807739257813 -391.64697265625 482.8687744140625 -396.9483947753906 C 477.7570495605469 -402.24951171875 471.7081298828125 -406.3881530761719 464.8900756835938 -409.2493286132813 C 457.8621215820313 -412.1985778808594 450.2323303222656 -413.6939697265625 442.212646484375 -413.6939697265625 C 434.1939392089844 -413.6939697265625 426.5649719238281 -412.1985778808594 419.5376281738281 -409.2493286132813 C 412.7200927734375 -406.3881530761719 406.6716003417969 -402.24951171875 401.5601501464844 -396.9483947753906 C 396.4483947753906 -391.6469421386719 392.4571533203125 -385.3732604980469 389.6972351074219 -378.3016357421875 C 386.8531188964844 -371.0140991210938 385.4110107421875 -363.1061401367188 385.4110107421875 -354.7974853515625 C 385.4110107421875 -346.4169311523438 386.8608093261719 -338.4457702636719 389.7200927734375 -331.1054077148438 C 392.48974609375 -323.9952087402344 396.4938354492188 -317.6883850097656 401.6211547851563 -312.3601684570313 C 406.7381896972656 -307.0426330566406 412.789306640625 -302.8912963867188 419.6064758300781 -300.0215148925781 C 426.6216430664063 -297.0683898925781 434.2274169921875 -295.5710144042969 442.212646484375 -295.5710144042969 M 442.212646484375 -399.5496520996094 C 467.5445861816406 -399.5496520996094 486.6473388671875 -380.3103942871094 486.6473388671875 -354.7974853515625 C 486.6473388671875 -328.675048828125 467.9598388671875 -309.7152404785156 442.212646484375 -309.7152404785156 C 416.4677734375 -309.7152404785156 397.781982421875 -328.675048828125 397.781982421875 -354.7974853515625 C 397.781982421875 -380.3103942871094 416.8830261230469 -399.5496520996094 442.212646484375 -399.5496520996094 M 442.212646484375 -294.5710144042969 C 409.115966796875 -294.5710144042969 384.4110107421875 -320.084228515625 384.4110107421875 -354.7974853515625 C 384.4110107421875 -389.1889343261719 408.9552001953125 -414.6939697265625 442.212646484375 -414.6939697265625 C 475.4741821289063 -414.6939697265625 500.0184631347656 -389.1889343261719 500.0184631347656 -354.7974853515625 C 500.0184631347656 -320.084228515625 475.3134155273438 -294.5710144042969 442.212646484375 -294.5710144042969 Z M 442.212646484375 -398.5496520996094 C 417.1900024414063 -398.5496520996094 398.781982421875 -379.8200073242188 398.781982421875 -354.7974853515625 C 398.781982421875 -329.445068359375 417.1900024414063 -310.7152404785156 442.212646484375 -310.7152404785156 C 467.2393798828125 -310.7152404785156 485.6473388671875 -329.445068359375 485.6473388671875 -354.7974853515625 C 485.6473388671875 -379.8200073242188 467.2393798828125 -398.5496520996094 442.212646484375 -398.5496520996094 Z" stroke="none" fill="#fff"/>
    </g>
    <g id="패스_10" data-name="패스 10" transform="translate(0.981)" fill="none" stroke-miterlimit="10">
      <path d="M384.725-444.257H497.747v13.241L413.463-363.2h84.284v16.144H384.725v-13.237L469-428.113h-84.28Z" stroke="none"/>
      <path d="M 385.7250061035156 -443.2569885253906 L 385.7250061035156 -429.1129455566406 L 469.0049133300781 -429.1129455566406 L 471.8427429199219 -429.1129455566406 L 469.6318359375 -427.3338623046875 L 385.7250061035156 -359.8157958984375 L 385.7250061035156 -348.0576782226563 L 496.7470092773438 -348.0576782226563 L 496.7470092773438 -362.2018737792969 L 413.462890625 -362.2018737792969 L 410.6247863769531 -362.2018737792969 L 412.8360290527344 -363.9809875488281 L 496.7470092773438 -431.4947204589844 L 496.7470092773438 -443.2569885253906 L 385.7250061035156 -443.2569885253906 M 384.7250061035156 -444.2569885253906 L 497.7470092773438 -444.2569885253906 L 497.7470092773438 -431.0158081054688 L 413.462890625 -363.2018737792969 L 497.7470092773438 -363.2018737792969 L 497.7470092773438 -347.0576782226563 L 384.7250061035156 -347.0576782226563 L 384.7250061035156 -360.294677734375 L 469.0049133300781 -428.1129455566406 L 384.7250061035156 -428.1129455566406 L 384.7250061035156 -444.2569885253906 Z" stroke="none" fill="#fff"/>
    </g>
  </g>
</svg>
