<svg xmlns="http://www.w3.org/2000/svg" width="203.719" height="40.506" viewBox="0 0 203.719 40.506">
  <g id="keystation_logo" transform="translate(-573.211 190.726)">
    <g id="그룹_2" data-name="그룹 2" transform="translate(632.398 -178.802)">
      <path id="패스_11" data-name="패스 11" d="M678.119-161.3l-2.978,3.025v4.211h-2.326v-16.286h2.326v9.1l8.841-9.1h2.653l-6.957,7.329,7.4,8.957h-2.722Z" transform="translate(-672.814 170.533)" fill="#fff"/>
      <path id="패스_12" data-name="패스 12" d="M712.786-156.084v2.024H700.967v-16.286h11.494v2.024h-9.167v5h8.166v1.978h-8.166v5.258Z" transform="translate(-684.238 170.533)" fill="#fff"/>
      <path id="패스_13" data-name="패스 13" d="M731.391-159.69v5.63h-2.3v-5.677l-6.468-10.609h2.49l5.211,8.585,5.235-8.585h2.3Z" transform="translate(-693.024 170.533)" fill="#fff"/>
      <path id="패스_14" data-name="패스 14" d="M749.127-156.049l.861-1.815a8.382,8.382,0,0,0,5.374,1.885c2.815,0,4.025-1.094,4.025-2.513,0-3.978-9.865-1.465-9.865-7.515,0-2.513,1.954-4.653,6.235-4.653a9.586,9.586,0,0,1,5.235,1.443l-.768,1.861a8.412,8.412,0,0,0-4.467-1.326c-2.769,0-3.955,1.163-3.955,2.583,0,3.978,9.865,1.489,9.865,7.468,0,2.489-2,4.63-6.305,4.63A9.667,9.667,0,0,1,749.127-156.049Z" transform="translate(-703.78 170.66)" fill="#fff"/>
      <path id="패스_15" data-name="패스 15" d="M777.186-168.322H771.6v-2.024h13.47v2.024h-5.583v14.262h-2.3Z" transform="translate(-712.9 170.533)" fill="#fff"/>
      <path id="패스_16" data-name="패스 16" d="M805.862-158.132h-8.655l-1.792,4.072h-2.4l7.375-16.286h2.3l7.4,16.286h-2.443Zm-.814-1.861-3.513-7.98-3.514,7.98Z" transform="translate(-721.591 170.533)" fill="#fff"/>
      <path id="패스_17" data-name="패스 17" d="M826.09-168.322h-5.583v-2.024h13.471v2.024h-5.585v14.262h-2.3Z" transform="translate(-732.744 170.533)" fill="#fff"/>
      <path id="패스_18" data-name="패스 18" d="M847.444-170.346h2.326v16.286h-2.326Z" transform="translate(-743.675 170.533)" fill="#fff"/>
      <path id="패스_19" data-name="패스 19" d="M857.351-162.331c0-4.769,3.676-8.329,8.678-8.329a8.251,8.251,0,0,1,8.631,8.329,8.251,8.251,0,0,1-8.631,8.33C861.027-154,857.351-157.561,857.351-162.331Zm14.983,0a6.115,6.115,0,0,0-6.3-6.258,6.126,6.126,0,0,0-6.352,6.258,6.127,6.127,0,0,0,6.352,6.259A6.115,6.115,0,0,0,872.334-162.331Z" transform="translate(-747.695 170.66)" fill="#fff"/>
      <path id="패스_20" data-name="패스 20" d="M906.479-170.346v16.286h-1.908L894.8-166.2v12.145h-2.326v-16.286h1.907l9.772,12.145v-12.145Z" transform="translate(-761.947 170.533)" fill="#fff"/>
    </g>
    <g id="그룹_3" data-name="그룹 3" transform="translate(573.211 -190.726)">
      <path id="패스_21" data-name="패스 21" d="M592.434-158.11l-8.384-14.523a2.38,2.38,0,0,1,0-2.381l8.384-14.522a2.382,2.382,0,0,1,2.063-1.191h16.768a2.381,2.381,0,0,1,2.062,1.191l8.384,14.522-4.124,2.381-7.7-13.331H595.871l-7.01,12.141,7.7,13.331Z" transform="translate(-577.479 190.726)" fill="#9c6cff"/>
      <path id="패스_22" data-name="패스 22" d="M600.426-144.831H583.657a2.381,2.381,0,0,1-2.062-1.191l-8.384-14.522,4.124-2.381,7.7,13.331h14.02l7.009-12.141-7.7-13.331,4.124-2.381,8.385,14.522a2.384,2.384,0,0,1,0,2.381l-8.385,14.522A2.38,2.38,0,0,1,600.426-144.831Z" transform="translate(-573.211 185.338)" fill="#05d2dd"/>
    </g>
  </g>
</svg>
